<svg xmlns="http://www.w3.org/2000/svg" xmlns:xlink="http://www.w3.org/1999/xlink" version="1.1" x="0px" y="0px" viewBox="0 0 66 82.5" enable-background="new 0 0 66 66" xml:space="preserve"><path d="M28.3,36.2c-0.1,0.1-0.2,0.1-0.3,0.1H6.9c-0.4,0-0.7-0.3-0.7-0.7c0-0.4,0.3-0.7,0.7-0.7H28c0.4,0,0.7,0.3,0.7,0.7   c2.3-3.7,5.9-6.5,10-8V12.1c0-1.9-1.5-3.4-3.4-3.4h-3.6c0,0.3,0,0.5,0,0.8v1.7c0,2.4-1.9,4.3-4.3,4.3H13.7c-2.4,0-4.3-1.9-4.3-4.3   V9.4c0-0.3,0-0.5,0-0.8H5.9c-1.9,0-3.4,1.5-3.4,3.4v41c0,1.9,1.5,3.4,3.4,3.4h22.8c-1.9-3-3-6.6-3-10.4   C25.7,42.5,26.6,39.1,28.3,36.2z M6.9,18.9h27.4c0.4,0,0.7,0.3,0.7,0.7c0,0.4-0.3,0.7-0.7,0.7H6.9c-0.4,0-0.7-0.3-0.7-0.7   C6.2,19.2,6.5,18.9,6.9,18.9z M6.9,26.8h27.4c0.4,0,0.7,0.3,0.7,0.7c0,0.4-0.3,0.7-0.7,0.7H6.9c-0.4,0-0.7-0.3-0.7-0.7   C6.2,27.2,6.5,26.8,6.9,26.8z M24.5,52.2H6.9c-0.4,0-0.7-0.3-0.7-0.7c0-0.4,0.3-0.7,0.7-0.7h17.5c0.4,0,0.7,0.3,0.7,0.7   C25.2,51.8,24.9,52.2,24.5,52.2z M25,44.2H6.9c-0.4,0-0.7-0.3-0.7-0.7c0-0.4,0.3-0.7,0.7-0.7H25c0.4,0,0.7,0.3,0.7,0.7   C25.7,43.9,25.4,44.2,25,44.2z"/><path d="M13.7,14h13.9c1.6,0,2.8-1.3,2.8-2.8V9.4c0-2.6-2.1-4.7-4.7-4.7c0,0.2,0.1,0.5,0.1,0.7c0,2.8-2.3,5.2-5.2,5.2   c-2.8,0-5.2-2.3-5.2-5.2c0-0.2,0-0.5,0.1-0.7c-2.6,0-4.7,2.1-4.7,4.7v1.7C10.9,12.7,12.1,14,13.7,14z"/><path d="M20.6,9.1c2,0,3.7-1.7,3.7-3.7c0-2-1.7-3.7-3.7-3.7c-2,0-3.7,1.7-3.7,3.7C16.9,7.5,18.6,9.1,20.6,9.1z"/><path d="M45.3,44c-1.1,0-2.1,0.9-2.1,2.1c0,1.1,0.9,2.1,2.1,2.1c1.1,0,2.1-0.9,2.1-2.1C47.4,44.9,46.5,44,45.3,44z"/><path d="M45.3,27.9c-10,0-18.2,8.2-18.2,18.2c0,10,8.2,18.2,18.2,18.2c10,0,18.2-8.2,18.2-18.2C63.5,36,55.4,27.9,45.3,27.9z    M61.5,43.2c0.1,0.4-0.2,0.8-0.6,0.8l-2,0.4c-0.5,0-0.8-0.2-0.8-0.6C58,43.4,58.2,43,58.6,43l2-0.4C61,42.6,61.4,42.8,61.5,43.2z    M56.8,38.6l1.7-1c0.4-0.2,0.8-0.1,1,0.3c0.2,0.3,0.1,0.8-0.3,1l-1.7,1c-0.3,0.2-0.8,0.1-1-0.3C56.3,39.2,56.4,38.8,56.8,38.6z    M53.5,35.1l1.3-1.6c0.3-0.3,0.7-0.4,1-0.1c0.3,0.3,0.4,0.7,0.1,1l-1.3,1.6c-0.3,0.3-0.7,0.4-1,0.1C53.3,35.9,53.3,35.5,53.5,35.1z    M49.3,33l0.7-1.9c0.1-0.4,0.6-0.6,0.9-0.4c0.4,0.1,0.6,0.6,0.4,0.9l-0.7,1.9c-0.1,0.4-0.6,0.6-0.9,0.4   C49.4,33.8,49.2,33.4,49.3,33z M44.6,30.4c0-0.4,0.3-0.7,0.7-0.7c0.4,0,0.7,0.3,0.7,0.7v2c0,0.4-0.3,0.7-0.7,0.7   c-0.4,0-0.7-0.3-0.7-0.7V30.4z M30,42.6l2,0.4c0.4,0.1,0.7,0.4,0.6,0.8c-0.1,0.4-0.3,0.6-0.8,0.6l-2-0.4c-0.4-0.1-0.7-0.5-0.6-0.8   C29.3,42.8,29.6,42.6,30,42.6z M29.2,48.9c-0.1-0.4,0.2-0.8,0.6-0.8l2-0.4c0.4-0.1,0.8,0.2,0.8,0.6c0.1,0.4-0.2,0.8-0.6,0.8l-2,0.4   C29.7,49.6,29.3,49.3,29.2,48.9z M33.9,53.5l-1.8,1c-0.4,0.2-0.8,0.1-1-0.3c-0.2-0.4-0.1-0.8,0.3-1l1.8-1c0.4-0.2,0.8-0.1,1,0.3   C34.4,52.9,34.2,53.3,33.9,53.5z M34.1,39.6c-0.2,0.3-0.6,0.5-1,0.3l-1.8-1c-0.4-0.2-0.5-0.7-0.3-1c0.2-0.4,0.6-0.5,1-0.3l1.8,1   C34.2,38.8,34.4,39.2,34.1,39.6z M37.1,57l-1.3,1.6c-0.2,0.3-0.7,0.3-1,0.1c-0.3-0.3-0.4-0.7-0.1-1L36,56c0.3-0.3,0.7-0.4,1-0.1   C37.3,56.2,37.4,56.7,37.1,57z M37,36.2c-0.3,0.2-0.8,0.2-1-0.1l-1.3-1.6c-0.3-0.3-0.2-0.8,0.1-1c0.3-0.3,0.8-0.2,1,0.1l1.3,1.6   C37.4,35.5,37.3,35.9,37,36.2z M41.4,59.1L40.7,61c-0.1,0.4-0.6,0.6-0.9,0.4c-0.4-0.1-0.6-0.6-0.4-0.9l0.7-1.9   c0.1-0.4,0.6-0.6,0.9-0.4C41.3,58.3,41.5,58.8,41.4,59.1z M40.9,33.9c-0.3,0.1-0.8,0-0.9-0.4l-0.7-1.9c-0.1-0.4,0.1-0.8,0.4-0.9   c0.4-0.1,0.8,0.1,0.9,0.4l0.7,1.9C41.5,33.4,41.3,33.8,40.9,33.9z M46.1,61.7c0,0.4-0.3,0.7-0.7,0.7c-0.4,0-0.7-0.3-0.7-0.7v-2   c0-0.4,0.3-0.7,0.7-0.7c0.4,0,0.7,0.3,0.7,0.7V61.7z M50.9,61.5c-0.4,0.1-0.8-0.1-0.9-0.4l-0.7-1.9c-0.1-0.4,0.1-0.8,0.4-0.9   c0.4-0.1,0.8,0,0.9,0.4l0.7,1.9C51.5,60.9,51.3,61.3,50.9,61.5z M55.9,58.6c-0.3,0.2-0.8,0.2-1-0.1L53.5,57c-0.3-0.3-0.2-0.8,0.1-1   c0.3-0.3,0.8-0.2,1,0.1l1.3,1.6C56.2,57.9,56.2,58.4,55.9,58.6z M55.6,46.8h-6.8c-0.3,1.6-1.8,2.8-3.5,2.8c-1.9,0-3.5-1.6-3.5-3.5   c0-1.7,1.2-3.1,2.8-3.4v-6.8c0-0.4,0.3-0.7,0.7-0.7c0.4,0,0.7,0.3,0.7,0.7v6.8c1.4,0.3,2.4,1.4,2.7,2.7h6.8c0.4,0,0.7,0.3,0.7,0.7   C56.3,46.5,56,46.8,55.6,46.8z M59.5,54.3c-0.2,0.3-0.6,0.5-1,0.3l-1.7-1c-0.4-0.2-0.5-0.7-0.3-1c0.2-0.4,0.7-0.5,1-0.3l1.7,1   C59.6,53.5,59.7,53.9,59.5,54.3z M60.6,49.5l-2-0.4c-0.4-0.1-0.7-0.4-0.6-0.8c0.1-0.4,0.4-0.7,0.8-0.6l2,0.4   c0.4,0.1,0.7,0.4,0.6,0.8C61.4,49.3,61,49.6,60.6,49.5z"/></svg>