<svg xmlns="http://www.w3.org/2000/svg" xml:space="preserve" width="655.359" height="655.359" style="shape-rendering:geometricPrecision;text-rendering:geometricPrecision;image-rendering:optimizeQuality;fill-rule:evenodd;clip-rule:evenodd" viewBox="0 0 6.827 6.827"><defs><style>.fil1{fill:#fffffe;fill-rule:nonzero}</style></defs><g id="Layer_x0020_1"><rect width="6.827" height="6.827" rx=".853" ry=".853" style="fill:#ef5350"/><g id="_215565944"><path id="_215566616" class="fil1" d="M1.752.964a.107.107 0 0 0-.213 0v.604a.107.107 0 0 0 .213 0V.964zm2.542 0a.107.107 0 0 0-.213 0v.604a.107.107 0 0 0 .213 0V.964zm-.847 0a.107.107 0 0 0-.214 0v.604a.107.107 0 0 0 .214 0V.964zm-.847 0a.107.107 0 0 0-.214 0v.604a.107.107 0 0 0 .214 0V.964z"/><path id="_215566376" d="M1.009 1.262h.423v.306a.213.213 0 0 0 .427 0v-.306h.42v.306a.213.213 0 0 0 .427 0v-.306H3.127v.306a.213.213 0 0 0 .427 0v-.306h.42v.306a.213.213 0 0 0 .427 0v-.306h.288c.059 0 .106.048.106.107V3.698L3.118 4.806c-.085.071-.368.459-.439.56a.214.214 0 0 0 .215.334l.555-.113a.235.235 0 0 0 .068-.023l1.278-.844v1.142a.107.107 0 0 1-.106.107h-3.68a.107.107 0 0 1-.107-.107V1.37c0-.059.048-.107.107-.107zm.454 3.027H2.8v.16H1.463v-.16zm0-2.342h.639v.16h-.639v-.16zm0 1.773h2.77v.16h-2.77v-.16zm0-.569h2.77v.16h-2.77v-.16zm0-.569h2.77v.16h-2.77v-.16z" style="fill:#fffffe"/><path id="_215566016" class="fil1" d="m3.202 4.879 1.878-1.24.374.518-1.878 1.24-.374-.518zM5.19 3.565l.334-.22.059.089-.059-.09a.107.107 0 0 1 .151.037l.232.35-.089.059.089-.06a.107.107 0 0 1-.036.152l-.306.203-.375-.52zM3.466 5.47a.106.106 0 0 1-.039.013l-.554.113a.107.107 0 0 1-.106-.168l.325-.468.012.008.362.502zm-.363-.502-.01-.008c0-.001 0-.003.002-.004l.008.012z"/></g></g></svg>