<svg xmlns="http://www.w3.org/2000/svg" xml:space="preserve" width="655.359" height="655.359" style="shape-rendering:geometricPrecision;text-rendering:geometricPrecision;image-rendering:optimizeQuality;fill-rule:evenodd;clip-rule:evenodd" viewBox="0 0 6.827 6.827"><defs><style>.fil1,.fil2{fill:#fffffe}.fil2{fill-rule:nonzero}</style></defs><g id="Layer_x0020_1"><rect width="6.827" height="6.827" rx=".853" ry=".853" style="fill:#009688"/><path class="fil1" d="M3.188 1.723a.387.387 0 0 0-.034-.016.435.435 0 0 0-.086-.027c-.373-.071-.768.185-1.041.413a4.639 4.639 0 0 0-.634.658.231.231 0 0 0 .36.29c.108-.134.22-.264.34-.386l.257-.258-.076.356c-.03.137-.057.275-.076.414a4.46 4.46 0 0 0-.027.792c.003.12.006.24.007.36 0 .075.002.151-.002.227v.017l-.38.982a.295.295 0 0 0 .548.212l.396-1.024a.294.294 0 0 0 .019-.086l.035-.53.349.551.29 1.059a.295.295 0 0 0 .359.208.295.295 0 0 0 .208-.36l-.3-1.102a.3.3 0 0 0-.036-.081l-.475-.75.019-.05a.371.371 0 0 0 .015-.051l.194-.902.14.154c.057.063.117.124.18.182.155.145.326.272.503.39.125.083.322 0 .353-.146a.23.23 0 0 0-.097-.239 3.486 3.486 0 0 1-.445-.343 2.987 2.987 0 0 1-.283-.306l-.089-.112a6.392 6.392 0 0 0-.3-.357c-.01-.012-.024-.022-.036-.032a.896.896 0 0 0-.153-.106l-.002-.001zM3.676 1.244v-.02a.448.448 0 0 0-.767-.317.448.448 0 0 0 .318.767h.02a.448.448 0 0 0 .429-.43z"/><path class="fil2" d="m3.876 3.886-.026-.075 1.35-.476a.144.144 0 0 1 .184.088l.046.13-1.614.578a.06.06 0 0 0-.005.003L3.763 4a.08.08 0 0 1-.002-.005l.076-.026-.075.026a.144.144 0 0 1 .081-.181.08.08 0 0 1 .007-.003l.013.038.013.037zm1.593-.222.193.549a.144.144 0 0 1-.088.184l-1.35.476a.144.144 0 0 1-.184-.088l-.19-.54a.06.06 0 0 0 .005-.002l1.614-.579z"/><path class="fil2" d="m4.774 3.654-.392.139a.12.12 0 0 1-.153-.074l-.069-.194a.12.12 0 0 1 .073-.153.079.079 0 0 1 .005-.002l.387-.136a.12.12 0 0 1 .153.073l.069.194a.12.12 0 0 1-.073.153zm-.408-.025.317-.112-.042-.12-.317.112.042.12z"/></g></svg>