<svg xmlns="http://www.w3.org/2000/svg" xml:space="preserve" width="2048" height="2048" style="shape-rendering:geometricPrecision;text-rendering:geometricPrecision;image-rendering:optimizeQuality;fill-rule:evenodd;clip-rule:evenodd"><defs><style>.fil0{fill:none}.fil4{fill:#0288d1}.fil2{fill:#ffa726}</style></defs><g id="Layer_x0020_1"><path class="fil0" d="M0 0h2048v2048H0z"/><path class="fil0" d="M255.999 255.999h1536v1536h-1536z"/><path class="fil0" d="M255.999 255.999h1536v1536h-1536z"/><path d="M1114.52 1792h580.668l-3.27-326.542c-99.978-230.737-338.951-365.782-576.82-374.608l-.578-.018V1792z" style="fill:#fb8c00"/><path class="fil2" d="M533.857 1620.79v171.215h580.667v-701.168c-98.313-3.563-196.419 14.406-284.423 56.146-171.304 100.008-277.98 251.627-296.244 473.807z"/><path d="m1114.52 1073.48-.193.002c-216.983 0-392.554-175.983-392.554-392.966 0-216.56 175.571-392.518 392.554-392.518l.193.003v785.48z" style="fill:#ffb74d"/><path class="fil2" d="M1507.27 680.517c0 216.722-175.537 392.534-392.158 392.957l-.59.007v-785.48c.368 0 .733.013 1.1.014 216.388.697 391.648 176.371 391.648 392.502z"/><path class="fil4" d="M822.214 1323.65c0 129.658-105.157 234.832-234.815 234.832-129.675 0-234.592-105.174-234.592-234.832 0-129.418 104.917-234.567 234.592-234.567 129.658 0 234.815 105.149 234.815 234.567z"/><path d="M776.529 1323.67c0 104.421-84.684 189.122-189.105 189.122-104.43 0-188.933-84.7-188.933-189.122 0-104.223 84.503-188.908 188.933-188.908 104.421 0 189.105 84.685 189.105 188.908z" style="fill:#b3e5fc"/><path d="M618.384 1196.6h-56.296c-.207 27.148 0 98.366 0 98.366h-91.609v56.496c30.349-.207 91.609-.207 91.609-.207s0 71.16-.207 98.308h56.503v-98.308h91.609v-56.29h-91.609V1196.6z" style="fill:#212121"/><path class="fil4" d="M618.384 1196.6h-56.296c-.207 27.148 0 98.366 0 98.366h-91.609v56.496c30.349-.207 91.609-.207 91.609-.207s0 71.16-.207 98.308h56.503v-98.308h91.609v-56.29h-91.609V1196.6z"/></g></svg>