<svg xmlns="http://www.w3.org/2000/svg" viewBox="0 0 32 32" style="enable-background:new 0 0 32 32" xml:space="preserve"><path d="M12.375 14c-3.86 0-7-3.14-7-7s3.14-7 7-7 7 3.14 7 7-3.14 7-7 7zm0-12c-2.757 0-5 2.243-5 5s2.243 5 5 5 5-2.243 5-5-2.243-5-5-5zM1.375 32a1 1 0 0 1-1-1v-6.115c0-4.93 4.012-8.943 8.942-8.943h6.116c1.229 0 2.42.246 3.54.729a1 1 0 1 1-.792 1.836 6.91 6.91 0 0 0-2.748-.565H9.317a6.95 6.95 0 0 0-6.942 6.943V31a1 1 0 0 1-1 1zM24.625 32c-3.86 0-7-3.14-7-7s3.14-7 7-7 7 3.14 7 7-3.14 7-7 7zm0-12c-2.757 0-5 2.243-5 5s2.243 5 5 5 5-2.243 5-5-2.243-5-5-5z"/><g><path d="M24.625 19a6 6 0 1 0 0 12 6 6 0 0 0 0-12zm2 7h-4a1 1 0 0 1 0-2h4a1 1 0 0 1 0 2z"/></g></svg>