<svg xmlns="http://www.w3.org/2000/svg" width="256" height="256" xml:space="preserve"><path fill="#E0E0E0" d="M180.9 130.9v37c-7.1.9-13.6 3.7-19 7.9-9.3 7.2-15.3 18.5-15.3 31.3 0 10.1 3.8 19.4 10.1 26.4V256h-97v-30.5H53c-9.6 0-17.4-7.8-17.4-17.4v-77.2c0-23.8 19.4-43.2 43.2-43.2h1.5l16.4 76.4 12 54.2 27.7-120.7.4-1.5 1.9-8.4c23.3.5 42.2 19.7 42.2 43.2z"/><path fill="#F68F6F" d="m115.2 111.4 5.7 53.5-8.2 35.5-4.1 17.9-4.2-17.8-7.8-36.4 5.6-52.7-3.7-10.5-2.8-8h26.1l-2.9 8z"/><path fill="#4A555F" d="M108.7 84c-23.2 0-42-18.8-42-42s18.8-42 42-42 42 18.8 42 42-18.8 42-42 42zm0-80.9C87.3 3.1 69.9 20.6 69.9 42s17.4 38.9 38.9 38.9 38.9-17.4 38.9-38.9-17.5-38.9-39-38.9z"/><path fill="#FFD552" d="M108.7 77.2c-19.4 0-35.2-15.8-35.2-35.2S89.3 6.8 108.7 6.8C128.2 6.8 144 22.6 144 42s-15.8 35.2-35.3 35.2z"/><path fill="#4A555F" d="M54.5 232.3H53c-13.4 0-24.2-10.9-24.2-24.2v-77.2c0-27.5 22.4-50 50-50h59c27.5 0 50 22.4 50 50v36.6h-3.1v-36.6c0-25.8-21-46.8-46.8-46.8h-59c-25.8 0-46.8 21-46.8 46.8v77.2c0 11.6 9.5 21.1 21.1 21.1h1.5v3.1z"/><path fill="#4A555F" d="M52.9 158.1H56V256h-3.1zM160.4 238.3h3.1V256h-3.1zM160.4 158.1h3.1v17.7h-3.1zM116.4 113h-15.3l-7.6-21.6H124l-7.6 21.6zm-13.1-3.2h10.9l5.4-15.3H97.9l5.4 15.3z"/><path fill="#4A555F" d="m119.3 165-5.4-52h-10.3l-5.4 51.2-3.1-.3 5.7-54.1h15.9l5.7 54.9zM85.7 120.6l-8.5-39.7H93l7.2 20.3-14.5 19.4zM81 84l6.3 29.2 9.4-12.5L90.8 84H81zM132.4 121.7l-15.1-20.5 7.2-20.3h17.3l-9.4 40.8zm-11.6-21 10 13.7 7-30.3h-11.1l-5.9 16.6z"/><path fill="#4A555F" d="M110.1 219.3H107l-12-54.9-17.4-81.6 1.5-1.9h60.7l1.5 1.9-18.9 82.4-12.3 54.1zM81 84l.7 3.3 16.4 76.4 10.5 48 10.7-47.2L137.8 84H81z"/><g><path fill="#4A555F" d="M186.1 248.1c-22.7 0-41.1-18.4-41.1-41.1s18.4-41.1 41.1-41.1 41.1 18.4 41.1 41.1-18.4 41.1-41.1 41.1zm0-79c-20.9 0-38 17-38 38s17 38 38 38 38-17 38-38-17-38-38-38z"/><path fill="#F68F6F" d="M186.1 241.3c-18.9 0-34.3-15.4-34.3-34.3s15.4-34.3 34.3-34.3 34.3 15.4 34.3 34.3c0 19-15.4 34.3-34.3 34.3z"/></g><g><path fill="#4A555F" d="M107.2 242.7h3.1V256h-3.1z"/></g><g><path fill="#4A555F" d="M161.5 206.1h49.3v3.1h-49.3z"/></g></svg>