<svg xmlns="http://www.w3.org/2000/svg" xml:space="preserve" width="2048" height="2048" style="shape-rendering:geometricPrecision;text-rendering:geometricPrecision;image-rendering:optimizeQuality;fill-rule:evenodd;clip-rule:evenodd"><defs><clipPath id="id0"><path d="M1024-.001c565.539 0 1024 458.462 1024 1024 0 565.539-458.462 1024-1024 1024-565.539 0-1024-458.462-1024-1024 0-565.54 458.462-1024 1024-1024z"/></clipPath><style>.fil1{fill:#ffb300}</style></defs><g id="Layer_x0020_1"><path d="M1024-.001c565.539 0 1024 458.462 1024 1024 0 565.539-458.462 1024-1024 1024-565.539 0-1024-458.462-1024-1024 0-565.54 458.462-1024 1024-1024z" style="fill:#ffd54f"/><g style="clip-path:url(#id0)"><g id="_466479824"><path id="_4620382161" class="fil1" d="M1584 685.751 2719.88 1821.63l-844.11 848.18L739.889 1533.93z"/><path id="_462044432" class="fil1" d="M739.889 1533.93 1875.77 2669.81l1.98 1.98L741.87 1535.91z"/><path id="_462037304" class="fil1" d="m741.87 1535.91 1135.88 1135.88-250.9 34.82L490.973 1570.72z"/><path id="_462013448" class="fil1" d="M490.973 1570.72 1626.85 2706.61l-.1.01L490.871 1570.74z"/><path id="_462033296" class="fil1" d="M490.871 1570.74 1626.75 2706.62l-26.87 3.73L463.999 1574.47z"/><path id="_466501664" class="fil1" d="m1371.78 473.533 108.15 108.146.6.597L1584 685.751 739.889 1533.93l1.981 1.98-250.897 34.81-.102.02-26.872 3.73 61.701-254.73-.063-.06z"/></g></g><path d="M1024-.001c565.539 0 1024 458.462 1024 1024 0 565.539-458.462 1024-1024 1024-565.539 0-1024-458.462-1024-1024 0-565.54 458.462-1024 1024-1024z" style="fill:none"/><path style="fill:#757575" d="M490.871 1570.74 464 1574.47l61.7-254.73 108.084 108.09z"/><path style="fill:#616161" d="m741.87 1535.91-250.897 34.81-.102.02 142.913-142.91.124.12z"/><path style="fill:#b71c1c" d="m1479.93 581.679.6.598L1584 685.75l-844.111 848.18-105.981-105.98-.124-.12z"/><path style="fill:#e53935" d="m1371.78 473.533 108.15 108.146-846.146 846.151-108.146-108.15z"/></g></svg>