<svg xmlns="http://www.w3.org/2000/svg" xml:space="preserve" width="2048" height="2048" style="shape-rendering:geometricPrecision;text-rendering:geometricPrecision;image-rendering:optimizeQuality;fill-rule:evenodd;clip-rule:evenodd"><path d="M510 1568h770c102 0 199-41 271-113s113-169 113-271-41-199-113-271-169-113-271-113H451V672h829c136 0 265 54 362 150 96 96 150 226 150 362s-54 265-150 362c-96 96-226 150-362 150H510v-128z" style="fill:#d50000"/><path d="M510 1568h770c102 0 199-41 271-113s113-169 113-271-41-199-113-271-169-113-271-113H451v-67h813c123 0 240 51 327 135s136 197 136 316-49 232-136 316-204 132-327 132H509v-64z" style="fill:#c00806"/><path style="fill:#dd1a19;fill-rule:nonzero" d="M595 1072 279 755l-23-22 23-23 316-317z"/><path style="fill:#c71f1d;fill-rule:nonzero" d="M595 1072 279 755l-23-22h339z"/><path style="fill:none" d="M0 0h2048v2048H0z"/></svg>