<svg xmlns="http://www.w3.org/2000/svg" xml:space="preserve" width="2048" height="2048" style="shape-rendering:geometricPrecision;text-rendering:geometricPrecision;image-rendering:optimizeQuality;fill-rule:evenodd;clip-rule:evenodd"><defs><clipPath id="id0"><path d="M1024-.001c565.539 0 1024 458.462 1024 1024 0 565.539-458.462 1024-1024 1024-565.539 0-1024-458.462-1024-1024 0-565.54 458.462-1024 1024-1024z"/></clipPath><style>.fil5{fill:#37474f}.fil6{fill:#b0bec5}.fil1{fill:#ffa726}.fil3,.fil8{fill:#37474f;fill-rule:nonzero}.fil8{fill:#78909c}</style></defs><g id="Layer_x0020_1"><path d="M1024-.001c565.539 0 1024 458.462 1024 1024 0 565.539-458.462 1024-1024 1024-565.539 0-1024-458.462-1024-1024 0-565.54 458.462-1024 1024-1024z" style="fill:#ffb74d"/><g style="clip-path:url(#id0)"><g id="_289347728"><path id="_2909686561" class="fil1" d="M2713.18 1863.09zM1577.3 727.21z"/><path id="_290968680" class="fil1" d="M1578.88 728.942 2714.76 1864.82l.7.92.66.93.6.97.55.98.49 1.01.45 1.02.39 1.04.34 1.05.29 1.07.23 1.08.19 1.08.13 1.09.08 1.09.02 1.1L1584 743.369l-.02-1.096-.08-1.095-.14-1.09-.18-1.085-.23-1.077-.29-1.065-.34-1.055-.39-1.039-.45-1.023-.49-1.005-.55-.985-.61-.963-.65-.938z"/><path id="_290970312" class="fil1" d="M1584 743.369 2719.88 1879.25v31.26L1584 774.631z"/><path id="_290970192" class="fil1" d="M1584 774.631 2719.88 1910.51v736.6L1584 1511.23z"/><path id="_290969856" class="fil1" d="m1584 1511.23 1135.88 1135.88v31.26L1584 1542.49z"/><path id="_290970000" class="fil1" d="m1584 1542.49 1135.88 1135.88-.12 2.34-.34 2.27-.57 2.19-.76 2.1-.97 2-1.14 1.88-1.32 1.76-1.47 1.62-1.63 1.48-1.76 1.31-1.88 1.15-2 .96-2.1.77-2.19.56-2.27.35-2.34.12-1135.88-1135.88 2.34-.12 2.27-.35 2.19-.56 2.1-.77 2-.96 1.88-1.15 1.76-1.31 1.63-1.48 1.47-1.62 1.32-1.76 1.14-1.89.96-1.99.77-2.1.57-2.2.34-2.26z"/><path id="_290969760" class="fil1" d="m1561.14 1565.35 1135.88 1135.88H1622.74L486.857 1565.35z"/><path id="_290970264" class="fil1" d="M486.857 1565.35 1622.74 2701.23l-2.34-.12-2.27-.35-2.19-.56-2.1-.77-2-.96-1.88-1.15-1.76-1.31L472.317 1560.13l1.76 1.31 1.884 1.15 1.998.96 2.1.77 2.191.56 2.269.35z"/><path id="_289347752" class="fil1" d="M1577.3 727.208zm-237.715-237.716 237.717 237.714a22.793 22.793 0 0 1 6.696 16.163l-.002 31.263.002 736.594v31.263c0 12.623-10.235 22.858-22.858 22.858H486.85c-12.624 0-22.858-10.235-22.858-22.858V505.513c0-12.623 10.234-22.857 22.858-22.857h836.431a22.785 22.785 0 0 1 16.301 6.837z"/></g></g><path d="M1024-.001c565.539 0 1024 458.462 1024 1024 0 565.539-458.462 1024-1024 1024-565.539 0-1024-458.462-1024-1024 0-565.54 458.462-1024 1024-1024z" style="fill:none"/><path class="fil3" d="M486.857 513.917H1323.287a22.785 22.785 0 0 1 16.302 6.837l237.715 237.716.002-.002a22.784 22.784 0 0 1 6.695 16.163v767.856c0 12.624-10.233 22.858-22.857 22.858H486.854c-12.624 0-22.858-10.234-22.858-22.858V536.777c0-12.624 10.234-22.857 22.858-22.857z"/><path d="M486.857 482.654H1323.287a22.785 22.785 0 0 1 16.302 6.837l237.715 237.716.002-.002a22.786 22.786 0 0 1 6.695 16.163v767.856c0 12.625-10.233 22.858-22.857 22.858H486.854c-12.624 0-22.858-10.233-22.858-22.858V505.514c0-12.623 10.234-22.857 22.858-22.857z" style="fill:#455a64;fill-rule:nonzero"/><path class="fil5" d="M699.577 482.654h530.47v253.387c0 12.03-9.843 21.874-21.874 21.874H721.451c-12.03 0-21.874-9.843-21.874-21.874V482.654z"/><path class="fil6" d="M794.37 482.654h395.573v188.951c0 8.973-7.34 16.312-16.312 16.312H810.683c-8.973 0-16.312-7.34-16.312-16.312V482.654z"/><path class="fil3" d="M1158.5 538.023h-24.75v94.526h24.75z"/><path class="fil6" d="M699.577 1014.55h632.553v519.532H699.577z"/><path style="fill:#ff6f00" d="M699.577 1014.55h632.553v43.702H699.577z"/><path class="fil8" d="M787.281 1302.46v-46.45h457.149v46.45zM787.281 1196.73v-46.45h457.149v46.45zM787.281 1393.15v-46.45h457.149v46.45z"/><circle class="fil5" cx="533.635" cy="1474.98" r="25.748"/><circle class="fil5" cx="1514.37" cy="1474.98" r="25.748"/></g></svg>